<svg width="32" height="32" viewBox="0 0 32 32" fill="none" xmlns="http://www.w3.org/2000/svg">
<rect x="1" y="1" width="30" height="30" rx="11" fill="black"/>
<path d="M16.0142 25C14.9947 25 14.0035 24.8134 13.0407 24.4401C12.0968 24.0482 11.2378 23.479 10.4637 22.7325C9.70855 21.9673 9.10442 21.0249 8.65133 19.9051C8.21711 18.7854 8 17.4883 8 16.014C8 14.5956 8.22655 13.3266 8.67965 12.2068C9.13274 11.0871 9.73687 10.1446 10.492 9.37947C11.2472 8.59564 12.0968 8.00778 13.0407 7.61586C14.0035 7.20529 14.9947 7 16.0142 7C17.0336 7 18.0153 7.19596 18.9593 7.58787C19.9032 7.96112 20.7528 8.53033 21.508 9.29549C22.282 10.0607 22.8861 11.0031 23.3204 12.1229C23.7735 13.2426 24 14.5397 24 16.014C24 17.4323 23.7735 18.7014 23.3204 19.8212C22.8861 20.9409 22.2914 21.8834 21.5363 22.6485C20.7811 23.4137 19.9221 24.0016 18.9593 24.4121C18.0153 24.804 17.0336 25 16.0142 25ZM16.0142 23.6843C17.1847 23.6843 18.1286 23.3204 18.846 22.5925C19.5823 21.8647 20.1204 20.9129 20.4602 19.7372C20.8 18.5614 20.9699 17.3204 20.9699 16.014C20.9699 15.0249 20.8755 14.0731 20.6867 13.1586C20.4979 12.2442 20.1959 11.4323 19.7805 10.7232C19.3841 9.99533 18.8743 9.4168 18.2513 8.98756C17.6283 8.55832 16.8826 8.3437 16.0142 8.3437C15.1457 8.3437 14.3906 8.55832 13.7487 8.98756C13.1257 9.4168 12.6065 9.99533 12.1912 10.7232C11.7947 11.4323 11.5021 12.2442 11.3133 13.1586C11.1245 14.0731 11.0301 15.0249 11.0301 16.014C11.0301 17.3204 11.2 18.5614 11.5398 19.7372C11.8796 20.9129 12.4177 21.8647 13.154 22.5925C13.8903 23.3204 14.8437 23.6843 16.0142 23.6843Z" fill="white"/>
</svg>
