<svg width="32" height="32" viewBox="0 0 32 32" fill="none" xmlns="http://www.w3.org/2000/svg">
<rect x="1" y="1" width="30" height="30" rx="11" fill="black"/>
<path d="M14.1557 14.0614L16.7665 12.7219H17.8802V25H14.1557V14.0614ZM14 8.77415C14 8.53133 14.0519 8.30026 14.1557 8.08094C14.2595 7.86162 14.4032 7.67363 14.5868 7.51697C14.7705 7.36031 14.982 7.23499 15.2216 7.14099C15.4611 7.047 15.7206 7 16 7C16.2794 7 16.5389 7.047 16.7784 7.14099C17.0259 7.23499 17.2375 7.36031 17.4132 7.51697C17.5968 7.67363 17.7405 7.86162 17.8443 8.08094C17.9481 8.30026 18 8.53133 18 8.77415C18 9.01697 17.9481 9.24804 17.8443 9.46736C17.7405 9.67885 17.5968 9.86292 17.4132 10.0196C17.2375 10.1762 17.0259 10.3016 16.7784 10.3956C16.5389 10.4896 16.2794 10.5366 16 10.5366C15.7206 10.5366 15.4611 10.4896 15.2216 10.3956C14.982 10.3016 14.7705 10.1762 14.5868 10.0196C14.4032 9.86292 14.2595 9.67885 14.1557 9.46736C14.0519 9.24804 14 9.01697 14 8.77415Z" fill="white"/>
</svg>
